<mxfile host="app.diagrams.net" modified="2023-09-25T07:56:15.731Z" agent="Mozilla/5.0 (Windows NT 10.0; Win64; x64) AppleWebKit/537.36 (KHTML, like Gecko) Chrome/116.0.0.0 Safari/537.36" etag="dXvoL7vx_mGV7lsSAA07" version="21.8.0" type="github">
  <diagram id="R2lEEEUBdFMjLlhIrx00" name="Page-1">
    <mxGraphModel dx="3353" dy="3285" grid="1" gridSize="10" guides="1" tooltips="1" connect="1" arrows="1" fold="1" page="1" pageScale="1" pageWidth="850" pageHeight="1100" math="0" shadow="0" extFonts="Permanent Marker^https://fonts.googleapis.com/css?family=Permanent+Marker">
      <root>
        <mxCell id="0" />
        <mxCell id="1" parent="0" />
        <mxCell id="IwYNM2S-BBjEqah2TzmC-47" value="" style="rounded=1;whiteSpace=wrap;html=1;fillColor=#d5e8d4;strokeColor=#82b366;align=left;" parent="1" vertex="1">
          <mxGeometry x="-40" y="-520" width="1960" height="200" as="geometry" />
        </mxCell>
        <mxCell id="IwYNM2S-BBjEqah2TzmC-45" value="" style="rounded=1;whiteSpace=wrap;html=1;fillColor=#d5e8d4;strokeColor=#82b366;align=left;" parent="1" vertex="1">
          <mxGeometry x="-40" y="-720" width="1960" height="180" as="geometry" />
        </mxCell>
        <mxCell id="IwYNM2S-BBjEqah2TzmC-43" value="" style="rounded=1;whiteSpace=wrap;html=1;fillColor=#d5e8d4;strokeColor=#82b366;align=left;" parent="1" vertex="1">
          <mxGeometry x="-40" y="-1170" width="1960" height="430" as="geometry" />
        </mxCell>
        <mxCell id="IwYNM2S-BBjEqah2TzmC-41" value="" style="rounded=1;whiteSpace=wrap;html=1;fillColor=#d5e8d4;strokeColor=#82b366;align=left;" parent="1" vertex="1">
          <mxGeometry x="-40" y="-1370" width="1960" height="180" as="geometry" />
        </mxCell>
        <mxCell id="PB8VJp5A9sUiDMv73GTw-72" value="" style="rounded=1;whiteSpace=wrap;html=1;fillColor=#d5e8d4;strokeColor=#82b366;align=left;" parent="1" vertex="1">
          <mxGeometry x="-40" y="-2050" width="1960" height="660" as="geometry" />
        </mxCell>
        <mxCell id="PB8VJp5A9sUiDMv73GTw-6" value="" style="edgeStyle=orthogonalEdgeStyle;rounded=0;orthogonalLoop=1;jettySize=auto;html=1;entryX=0;entryY=0.5;entryDx=0;entryDy=0;" parent="1" source="PB8VJp5A9sUiDMv73GTw-1" target="PB8VJp5A9sUiDMv73GTw-3" edge="1">
          <mxGeometry relative="1" as="geometry">
            <mxPoint x="270" y="-1310" as="targetPoint" />
          </mxGeometry>
        </mxCell>
        <mxCell id="PB8VJp5A9sUiDMv73GTw-1" value="오더 접수" style="rounded=0;whiteSpace=wrap;html=1;fontSize=24;" parent="1" vertex="1">
          <mxGeometry x="10" y="-1500" width="150" height="100" as="geometry" />
        </mxCell>
        <mxCell id="xMRs9goJyu4zqFvysK1f-5" style="edgeStyle=orthogonalEdgeStyle;rounded=0;orthogonalLoop=1;jettySize=auto;html=1;entryX=0.5;entryY=0;entryDx=0;entryDy=0;" parent="1" source="PB8VJp5A9sUiDMv73GTw-3" target="IwYNM2S-BBjEqah2TzmC-14" edge="1">
          <mxGeometry relative="1" as="geometry" />
        </mxCell>
        <mxCell id="60yucdKm0E93LIc5MlVe-4" value="" style="edgeStyle=orthogonalEdgeStyle;rounded=0;orthogonalLoop=1;jettySize=auto;html=1;" parent="1" source="PB8VJp5A9sUiDMv73GTw-3" target="60yucdKm0E93LIc5MlVe-1" edge="1">
          <mxGeometry relative="1" as="geometry" />
        </mxCell>
        <mxCell id="PB8VJp5A9sUiDMv73GTw-3" value="생산 계획 &lt;br&gt;수립" style="rounded=0;whiteSpace=wrap;html=1;fontSize=24;" parent="1" vertex="1">
          <mxGeometry x="305" y="-1330" width="150" height="100" as="geometry" />
        </mxCell>
        <mxCell id="wDYUuuzKXJS1eDHKZzvI-2" style="edgeStyle=orthogonalEdgeStyle;rounded=0;orthogonalLoop=1;jettySize=auto;html=1;entryX=0;entryY=0.5;entryDx=0;entryDy=0;" parent="1" source="PB8VJp5A9sUiDMv73GTw-14" target="PB8VJp5A9sUiDMv73GTw-1" edge="1">
          <mxGeometry relative="1" as="geometry" />
        </mxCell>
        <mxCell id="PB8VJp5A9sUiDMv73GTw-14" value="고객" style="rounded=0;whiteSpace=wrap;html=1;fontSize=24;" parent="1" vertex="1">
          <mxGeometry x="-210" y="-1500" width="150" height="100" as="geometry" />
        </mxCell>
        <mxCell id="VcnRMFTN6XKTCe_h4LS6-2" value="" style="edgeStyle=orthogonalEdgeStyle;rounded=0;orthogonalLoop=1;jettySize=auto;html=1;" edge="1" parent="1" source="PB8VJp5A9sUiDMv73GTw-15" target="IwYNM2S-BBjEqah2TzmC-14">
          <mxGeometry relative="1" as="geometry" />
        </mxCell>
        <mxCell id="PB8VJp5A9sUiDMv73GTw-15" value="자재" style="rounded=0;whiteSpace=wrap;html=1;fontSize=24;" parent="1" vertex="1">
          <mxGeometry x="-210" y="-880" width="150" height="100" as="geometry" />
        </mxCell>
        <mxCell id="VcnRMFTN6XKTCe_h4LS6-8" style="edgeStyle=orthogonalEdgeStyle;rounded=0;orthogonalLoop=1;jettySize=auto;html=1;entryX=0.5;entryY=0;entryDx=0;entryDy=0;" edge="1" parent="1" source="PB8VJp5A9sUiDMv73GTw-19" target="VcnRMFTN6XKTCe_h4LS6-5">
          <mxGeometry relative="1" as="geometry" />
        </mxCell>
        <mxCell id="PB8VJp5A9sUiDMv73GTw-19" value="조직" style="rounded=0;whiteSpace=wrap;html=1;fontSize=24;" parent="1" vertex="1">
          <mxGeometry x="10" y="-2170" width="150" height="100" as="geometry" />
        </mxCell>
        <mxCell id="PB8VJp5A9sUiDMv73GTw-45" value="" style="edgeStyle=orthogonalEdgeStyle;rounded=0;orthogonalLoop=1;jettySize=auto;html=1;" parent="1" source="PB8VJp5A9sUiDMv73GTw-41" target="PB8VJp5A9sUiDMv73GTw-42" edge="1">
          <mxGeometry relative="1" as="geometry" />
        </mxCell>
        <mxCell id="PB8VJp5A9sUiDMv73GTw-41" value="&amp;nbsp;사전 영업 처리" style="rounded=0;whiteSpace=wrap;html=1;fontSize=24;" parent="1" vertex="1">
          <mxGeometry x="-7.5" y="-1820" width="185" height="100" as="geometry" />
        </mxCell>
        <mxCell id="PB8VJp5A9sUiDMv73GTw-44" value="" style="edgeStyle=orthogonalEdgeStyle;rounded=0;orthogonalLoop=1;jettySize=auto;html=1;" parent="1" source="PB8VJp5A9sUiDMv73GTw-42" target="PB8VJp5A9sUiDMv73GTw-1" edge="1">
          <mxGeometry relative="1" as="geometry" />
        </mxCell>
        <mxCell id="PB8VJp5A9sUiDMv73GTw-42" value="판매 계획" style="rounded=0;whiteSpace=wrap;html=1;fontSize=24;" parent="1" vertex="1">
          <mxGeometry x="10" y="-1630" width="150" height="100" as="geometry" />
        </mxCell>
        <mxCell id="PB8VJp5A9sUiDMv73GTw-58" style="edgeStyle=orthogonalEdgeStyle;rounded=0;orthogonalLoop=1;jettySize=auto;html=1;entryX=0;entryY=0.5;entryDx=0;entryDy=0;" parent="1" source="PB8VJp5A9sUiDMv73GTw-48" target="PB8VJp5A9sUiDMv73GTw-59" edge="1">
          <mxGeometry relative="1" as="geometry">
            <mxPoint x="790" y="-1500" as="targetPoint" />
          </mxGeometry>
        </mxCell>
        <mxCell id="PB8VJp5A9sUiDMv73GTw-48" value="출하 계획" style="rounded=0;whiteSpace=wrap;html=1;fontSize=24;" parent="1" vertex="1">
          <mxGeometry x="550" y="-1550" width="150" height="100" as="geometry" />
        </mxCell>
        <mxCell id="PB8VJp5A9sUiDMv73GTw-62" style="edgeStyle=orthogonalEdgeStyle;rounded=0;orthogonalLoop=1;jettySize=auto;html=1;entryX=0;entryY=0.5;entryDx=0;entryDy=0;" parent="1" source="PB8VJp5A9sUiDMv73GTw-59" target="PB8VJp5A9sUiDMv73GTw-61" edge="1">
          <mxGeometry relative="1" as="geometry" />
        </mxCell>
        <mxCell id="PB8VJp5A9sUiDMv73GTw-59" value="출하" style="rounded=0;whiteSpace=wrap;html=1;fontSize=24;" parent="1" vertex="1">
          <mxGeometry x="810" y="-1550" width="150" height="100" as="geometry" />
        </mxCell>
        <mxCell id="PB8VJp5A9sUiDMv73GTw-66" style="edgeStyle=orthogonalEdgeStyle;rounded=0;orthogonalLoop=1;jettySize=auto;html=1;exitX=1;exitY=0.5;exitDx=0;exitDy=0;entryX=0;entryY=0.5;entryDx=0;entryDy=0;" parent="1" source="PB8VJp5A9sUiDMv73GTw-61" target="PB8VJp5A9sUiDMv73GTw-65" edge="1">
          <mxGeometry relative="1" as="geometry">
            <mxPoint x="1310" y="-1500" as="targetPoint" />
          </mxGeometry>
        </mxCell>
        <mxCell id="PB8VJp5A9sUiDMv73GTw-61" value="외부업체 &lt;br&gt;송장 발급" style="rounded=0;whiteSpace=wrap;html=1;fontSize=24;" parent="1" vertex="1">
          <mxGeometry x="1070" y="-1550" width="150" height="100" as="geometry" />
        </mxCell>
        <mxCell id="IwYNM2S-BBjEqah2TzmC-31" style="edgeStyle=orthogonalEdgeStyle;rounded=0;orthogonalLoop=1;jettySize=auto;html=1;entryX=1;entryY=0.5;entryDx=0;entryDy=0;" parent="1" source="PB8VJp5A9sUiDMv73GTw-65" target="IwYNM2S-BBjEqah2TzmC-29" edge="1">
          <mxGeometry relative="1" as="geometry">
            <mxPoint x="1520" y="-390" as="targetPoint" />
            <Array as="points">
              <mxPoint x="1740" y="-1500" />
              <mxPoint x="1740" y="-650" />
            </Array>
          </mxGeometry>
        </mxCell>
        <mxCell id="IwYNM2S-BBjEqah2TzmC-36" style="edgeStyle=orthogonalEdgeStyle;rounded=0;orthogonalLoop=1;jettySize=auto;html=1;entryX=0.25;entryY=0;entryDx=0;entryDy=0;" parent="1" edge="1">
          <mxGeometry relative="1" as="geometry">
            <mxPoint x="860.07" y="-510" as="targetPoint" />
            <mxPoint x="1512.57" y="-1499.9999999999995" as="sourcePoint" />
            <Array as="points">
              <mxPoint x="1740" y="-1500" />
              <mxPoint x="1740" y="-540" />
              <mxPoint x="860" y="-540" />
            </Array>
          </mxGeometry>
        </mxCell>
        <mxCell id="PB8VJp5A9sUiDMv73GTw-65" value="대금 청구" style="rounded=0;whiteSpace=wrap;html=1;fontSize=24;" parent="1" vertex="1">
          <mxGeometry x="1330" y="-1550" width="150" height="100" as="geometry" />
        </mxCell>
        <mxCell id="PB8VJp5A9sUiDMv73GTw-73" value="&lt;span style=&quot;font-size: 48px;&quot;&gt;SD&lt;/span&gt;" style="ellipse;whiteSpace=wrap;html=1;align=center;fillColor=#fff2cc;strokeColor=#d6b656;" parent="1" vertex="1">
          <mxGeometry x="1730" y="-2020" width="170" height="110" as="geometry" />
        </mxCell>
        <mxCell id="IwYNM2S-BBjEqah2TzmC-4" style="edgeStyle=orthogonalEdgeStyle;rounded=0;orthogonalLoop=1;jettySize=auto;html=1;" parent="1" source="IwYNM2S-BBjEqah2TzmC-1" edge="1">
          <mxGeometry relative="1" as="geometry">
            <mxPoint x="1025" y="-1280" as="targetPoint" />
          </mxGeometry>
        </mxCell>
        <mxCell id="IwYNM2S-BBjEqah2TzmC-1" value="작업지시" style="rounded=0;whiteSpace=wrap;html=1;fontSize=24;" parent="1" vertex="1">
          <mxGeometry x="795" y="-1330" width="150" height="100" as="geometry" />
        </mxCell>
        <mxCell id="IwYNM2S-BBjEqah2TzmC-6" style="edgeStyle=orthogonalEdgeStyle;rounded=0;orthogonalLoop=1;jettySize=auto;html=1;entryX=0;entryY=0.5;entryDx=0;entryDy=0;" parent="1" source="IwYNM2S-BBjEqah2TzmC-3" target="IwYNM2S-BBjEqah2TzmC-5" edge="1">
          <mxGeometry relative="1" as="geometry">
            <mxPoint x="1275" y="-1280" as="targetPoint" />
          </mxGeometry>
        </mxCell>
        <mxCell id="IwYNM2S-BBjEqah2TzmC-3" value="생산실행" style="rounded=0;whiteSpace=wrap;html=1;fontSize=24;" parent="1" vertex="1">
          <mxGeometry x="1035" y="-1330" width="150" height="100" as="geometry" />
        </mxCell>
        <mxCell id="IwYNM2S-BBjEqah2TzmC-7" style="edgeStyle=orthogonalEdgeStyle;rounded=0;orthogonalLoop=1;jettySize=auto;html=1;" parent="1" source="IwYNM2S-BBjEqah2TzmC-5" target="PB8VJp5A9sUiDMv73GTw-59" edge="1">
          <mxGeometry relative="1" as="geometry">
            <Array as="points">
              <mxPoint x="1365" y="-1410" />
              <mxPoint x="885" y="-1410" />
            </Array>
          </mxGeometry>
        </mxCell>
        <mxCell id="IwYNM2S-BBjEqah2TzmC-11" style="edgeStyle=orthogonalEdgeStyle;rounded=0;orthogonalLoop=1;jettySize=auto;html=1;entryX=0.5;entryY=0;entryDx=0;entryDy=0;" parent="1" source="IwYNM2S-BBjEqah2TzmC-5" target="IwYNM2S-BBjEqah2TzmC-8" edge="1">
          <mxGeometry relative="1" as="geometry" />
        </mxCell>
        <mxCell id="i-5mqXk06CoupeoVMKqS-10" style="edgeStyle=orthogonalEdgeStyle;rounded=0;orthogonalLoop=1;jettySize=auto;html=1;" parent="1" source="IwYNM2S-BBjEqah2TzmC-5" edge="1">
          <mxGeometry relative="1" as="geometry">
            <mxPoint x="1740" y="-1280" as="targetPoint" />
            <Array as="points">
              <mxPoint x="1740" y="-1280" />
            </Array>
          </mxGeometry>
        </mxCell>
        <mxCell id="IwYNM2S-BBjEqah2TzmC-5" value="제품입고" style="rounded=0;whiteSpace=wrap;html=1;fontSize=24;" parent="1" vertex="1">
          <mxGeometry x="1295" y="-1330" width="150" height="100" as="geometry" />
        </mxCell>
        <mxCell id="IwYNM2S-BBjEqah2TzmC-12" style="edgeStyle=orthogonalEdgeStyle;rounded=0;orthogonalLoop=1;jettySize=auto;html=1;" parent="1" source="IwYNM2S-BBjEqah2TzmC-8" edge="1">
          <mxGeometry relative="1" as="geometry">
            <mxPoint x="1195" y="-1080" as="targetPoint" />
          </mxGeometry>
        </mxCell>
        <mxCell id="xMRs9goJyu4zqFvysK1f-3" style="edgeStyle=orthogonalEdgeStyle;rounded=0;orthogonalLoop=1;jettySize=auto;html=1;" parent="1" source="IwYNM2S-BBjEqah2TzmC-8" edge="1">
          <mxGeometry relative="1" as="geometry">
            <mxPoint x="1740" y="-1080" as="targetPoint" />
            <Array as="points">
              <mxPoint x="1670" y="-1080" />
              <mxPoint x="1670" y="-1080" />
            </Array>
          </mxGeometry>
        </mxCell>
        <mxCell id="IwYNM2S-BBjEqah2TzmC-8" value="재고관리" style="rounded=0;whiteSpace=wrap;html=1;fontSize=24;" parent="1" vertex="1">
          <mxGeometry x="1295" y="-1130" width="150" height="100" as="geometry" />
        </mxCell>
        <mxCell id="IwYNM2S-BBjEqah2TzmC-10" style="edgeStyle=orthogonalEdgeStyle;rounded=0;orthogonalLoop=1;jettySize=auto;html=1;entryX=0.5;entryY=1;entryDx=0;entryDy=0;" parent="1" source="IwYNM2S-BBjEqah2TzmC-9" target="IwYNM2S-BBjEqah2TzmC-3" edge="1">
          <mxGeometry relative="1" as="geometry" />
        </mxCell>
        <mxCell id="IwYNM2S-BBjEqah2TzmC-9" value="자재투입" style="rounded=0;whiteSpace=wrap;html=1;fontSize=24;" parent="1" vertex="1">
          <mxGeometry x="1035" y="-1130" width="150" height="100" as="geometry" />
        </mxCell>
        <mxCell id="VcnRMFTN6XKTCe_h4LS6-4" style="edgeStyle=orthogonalEdgeStyle;rounded=0;orthogonalLoop=1;jettySize=auto;html=1;entryX=0;entryY=0.5;entryDx=0;entryDy=0;" edge="1" parent="1" source="IwYNM2S-BBjEqah2TzmC-14" target="i-5mqXk06CoupeoVMKqS-5">
          <mxGeometry relative="1" as="geometry" />
        </mxCell>
        <mxCell id="IwYNM2S-BBjEqah2TzmC-14" value="자재구매계획" style="rounded=0;whiteSpace=wrap;html=1;fontSize=24;" parent="1" vertex="1">
          <mxGeometry x="-10" y="-880" width="190" height="100" as="geometry" />
        </mxCell>
        <mxCell id="IwYNM2S-BBjEqah2TzmC-18" style="edgeStyle=orthogonalEdgeStyle;rounded=0;orthogonalLoop=1;jettySize=auto;html=1;entryX=0;entryY=0.5;entryDx=0;entryDy=0;" parent="1" source="IwYNM2S-BBjEqah2TzmC-15" target="IwYNM2S-BBjEqah2TzmC-17" edge="1">
          <mxGeometry relative="1" as="geometry">
            <mxPoint x="840" y="-830" as="targetPoint" />
          </mxGeometry>
        </mxCell>
        <mxCell id="IwYNM2S-BBjEqah2TzmC-15" value="구매계약" style="rounded=0;whiteSpace=wrap;html=1;fontSize=24;" parent="1" vertex="1">
          <mxGeometry x="600" y="-880" width="150" height="100" as="geometry" />
        </mxCell>
        <mxCell id="IwYNM2S-BBjEqah2TzmC-20" style="edgeStyle=orthogonalEdgeStyle;rounded=0;orthogonalLoop=1;jettySize=auto;html=1;entryX=0;entryY=0.5;entryDx=0;entryDy=0;" parent="1" source="IwYNM2S-BBjEqah2TzmC-17" target="IwYNM2S-BBjEqah2TzmC-19" edge="1">
          <mxGeometry relative="1" as="geometry" />
        </mxCell>
        <mxCell id="IwYNM2S-BBjEqah2TzmC-17" value="구매발주" style="rounded=0;whiteSpace=wrap;html=1;fontSize=24;" parent="1" vertex="1">
          <mxGeometry x="860" y="-880" width="150" height="100" as="geometry" />
        </mxCell>
        <mxCell id="IwYNM2S-BBjEqah2TzmC-21" style="edgeStyle=orthogonalEdgeStyle;rounded=0;orthogonalLoop=1;jettySize=auto;html=1;entryX=0.5;entryY=1;entryDx=0;entryDy=0;" parent="1" source="IwYNM2S-BBjEqah2TzmC-19" target="IwYNM2S-BBjEqah2TzmC-8" edge="1">
          <mxGeometry relative="1" as="geometry">
            <Array as="points">
              <mxPoint x="1165" y="-940" />
              <mxPoint x="1365" y="-940" />
            </Array>
          </mxGeometry>
        </mxCell>
        <mxCell id="IwYNM2S-BBjEqah2TzmC-23" value="" style="edgeStyle=orthogonalEdgeStyle;rounded=0;orthogonalLoop=1;jettySize=auto;html=1;" parent="1" source="IwYNM2S-BBjEqah2TzmC-19" target="IwYNM2S-BBjEqah2TzmC-22" edge="1">
          <mxGeometry relative="1" as="geometry" />
        </mxCell>
        <mxCell id="IwYNM2S-BBjEqah2TzmC-19" value="자재입고" style="rounded=0;whiteSpace=wrap;html=1;fontSize=24;" parent="1" vertex="1">
          <mxGeometry x="1090" y="-880" width="150" height="100" as="geometry" />
        </mxCell>
        <mxCell id="xMRs9goJyu4zqFvysK1f-4" style="edgeStyle=orthogonalEdgeStyle;rounded=0;orthogonalLoop=1;jettySize=auto;html=1;" parent="1" source="IwYNM2S-BBjEqah2TzmC-22" edge="1">
          <mxGeometry relative="1" as="geometry">
            <mxPoint x="1740" y="-830" as="targetPoint" />
            <Array as="points">
              <mxPoint x="1740" y="-830" />
            </Array>
          </mxGeometry>
        </mxCell>
        <mxCell id="IwYNM2S-BBjEqah2TzmC-22" value="지불 정산" style="whiteSpace=wrap;html=1;fontSize=24;rounded=0;" parent="1" vertex="1">
          <mxGeometry x="1330" y="-875" width="195" height="90" as="geometry" />
        </mxCell>
        <mxCell id="IwYNM2S-BBjEqah2TzmC-27" style="edgeStyle=orthogonalEdgeStyle;rounded=0;orthogonalLoop=1;jettySize=auto;html=1;entryX=0;entryY=0.5;entryDx=0;entryDy=0;" parent="1" source="IwYNM2S-BBjEqah2TzmC-24" target="IwYNM2S-BBjEqah2TzmC-28" edge="1">
          <mxGeometry relative="1" as="geometry">
            <mxPoint x="580" y="-640" as="targetPoint" />
          </mxGeometry>
        </mxCell>
        <mxCell id="IwYNM2S-BBjEqah2TzmC-24" value="부서비용집계" style="rounded=0;whiteSpace=wrap;html=1;fontSize=24;" parent="1" vertex="1">
          <mxGeometry x="20" y="-680" width="210" height="100" as="geometry" />
        </mxCell>
        <mxCell id="IwYNM2S-BBjEqah2TzmC-26" value="" style="edgeStyle=orthogonalEdgeStyle;rounded=0;orthogonalLoop=1;jettySize=auto;html=1;" parent="1" source="IwYNM2S-BBjEqah2TzmC-25" target="IwYNM2S-BBjEqah2TzmC-24" edge="1">
          <mxGeometry relative="1" as="geometry" />
        </mxCell>
        <mxCell id="IwYNM2S-BBjEqah2TzmC-25" value="비용전표" style="rounded=0;whiteSpace=wrap;html=1;fontSize=24;" parent="1" vertex="1">
          <mxGeometry x="20" y="-470" width="210" height="100" as="geometry" />
        </mxCell>
        <mxCell id="IwYNM2S-BBjEqah2TzmC-30" value="" style="edgeStyle=orthogonalEdgeStyle;rounded=0;orthogonalLoop=1;jettySize=auto;html=1;" parent="1" source="IwYNM2S-BBjEqah2TzmC-28" target="IwYNM2S-BBjEqah2TzmC-29" edge="1">
          <mxGeometry relative="1" as="geometry" />
        </mxCell>
        <mxCell id="IwYNM2S-BBjEqah2TzmC-28" value="원가 계산 및 분석" style="rounded=0;whiteSpace=wrap;html=1;fontSize=24;" parent="1" vertex="1">
          <mxGeometry x="600" y="-680" width="360" height="100" as="geometry" />
        </mxCell>
        <mxCell id="IwYNM2S-BBjEqah2TzmC-29" value="수익성 및 손익분석" style="whiteSpace=wrap;html=1;fontSize=24;rounded=0;" parent="1" vertex="1">
          <mxGeometry x="1200" y="-675" width="320" height="90" as="geometry" />
        </mxCell>
        <mxCell id="IwYNM2S-BBjEqah2TzmC-37" style="edgeStyle=orthogonalEdgeStyle;rounded=0;orthogonalLoop=1;jettySize=auto;html=1;" parent="1" source="IwYNM2S-BBjEqah2TzmC-32" edge="1">
          <mxGeometry relative="1" as="geometry">
            <mxPoint x="780" y="-420" as="targetPoint" />
          </mxGeometry>
        </mxCell>
        <mxCell id="IwYNM2S-BBjEqah2TzmC-32" value="고정자산" style="rounded=0;whiteSpace=wrap;html=1;fontSize=24;" parent="1" vertex="1">
          <mxGeometry x="520" y="-470" width="150" height="100" as="geometry" />
        </mxCell>
        <mxCell id="IwYNM2S-BBjEqah2TzmC-33" value="총계정원장" style="rounded=0;whiteSpace=wrap;html=1;fontSize=24;" parent="1" vertex="1">
          <mxGeometry x="800" y="-470" width="150" height="100" as="geometry" />
        </mxCell>
        <mxCell id="IwYNM2S-BBjEqah2TzmC-34" value="매출" style="rounded=0;whiteSpace=wrap;html=1;fontSize=24;" parent="1" vertex="1">
          <mxGeometry x="1050" y="-470" width="150" height="100" as="geometry" />
        </mxCell>
        <mxCell id="IwYNM2S-BBjEqah2TzmC-35" value="매입" style="rounded=0;whiteSpace=wrap;html=1;fontSize=24;" parent="1" vertex="1">
          <mxGeometry x="1320" y="-470" width="150" height="100" as="geometry" />
        </mxCell>
        <mxCell id="IwYNM2S-BBjEqah2TzmC-38" style="edgeStyle=orthogonalEdgeStyle;rounded=0;orthogonalLoop=1;jettySize=auto;html=1;entryX=0.5;entryY=0;entryDx=0;entryDy=0;exitX=1;exitY=0.5;exitDx=0;exitDy=0;" parent="1" source="PB8VJp5A9sUiDMv73GTw-65" target="IwYNM2S-BBjEqah2TzmC-34" edge="1">
          <mxGeometry relative="1" as="geometry">
            <mxPoint x="870.07" y="-500" as="targetPoint" />
            <mxPoint x="1522.57" y="-1489.9999999999995" as="sourcePoint" />
            <Array as="points">
              <mxPoint x="1740" y="-1500" />
              <mxPoint x="1740" y="-530" />
              <mxPoint x="1115" y="-530" />
            </Array>
          </mxGeometry>
        </mxCell>
        <mxCell id="IwYNM2S-BBjEqah2TzmC-39" style="edgeStyle=orthogonalEdgeStyle;rounded=0;orthogonalLoop=1;jettySize=auto;html=1;entryX=0.5;entryY=0;entryDx=0;entryDy=0;exitX=1;exitY=0.5;exitDx=0;exitDy=0;" parent="1" source="PB8VJp5A9sUiDMv73GTw-65" target="IwYNM2S-BBjEqah2TzmC-35" edge="1">
          <mxGeometry relative="1" as="geometry">
            <mxPoint x="1125" y="-500" as="targetPoint" />
            <mxPoint x="1532.57" y="-1479.9999999999995" as="sourcePoint" />
            <Array as="points">
              <mxPoint x="1740" y="-1500" />
              <mxPoint x="1740" y="-520" />
              <mxPoint x="1385" y="-520" />
              <mxPoint x="1385" y="-470" />
            </Array>
          </mxGeometry>
        </mxCell>
        <mxCell id="IwYNM2S-BBjEqah2TzmC-42" value="&lt;span style=&quot;font-size: 48px;&quot;&gt;PP&lt;/span&gt;" style="ellipse;whiteSpace=wrap;html=1;align=center;fillColor=#fff2cc;strokeColor=#d6b656;" parent="1" vertex="1">
          <mxGeometry x="1760" y="-1350" width="150" height="100" as="geometry" />
        </mxCell>
        <mxCell id="IwYNM2S-BBjEqah2TzmC-44" value="&lt;span style=&quot;font-size: 48px;&quot;&gt;MM&lt;/span&gt;" style="ellipse;whiteSpace=wrap;html=1;align=center;fillColor=#fff2cc;strokeColor=#d6b656;" parent="1" vertex="1">
          <mxGeometry x="1760" y="-1150" width="150" height="100" as="geometry" />
        </mxCell>
        <mxCell id="IwYNM2S-BBjEqah2TzmC-46" value="&lt;span style=&quot;font-size: 48px;&quot;&gt;CO&lt;/span&gt;" style="ellipse;whiteSpace=wrap;html=1;align=center;fillColor=#fff2cc;strokeColor=#d6b656;" parent="1" vertex="1">
          <mxGeometry x="1760" y="-710" width="150" height="100" as="geometry" />
        </mxCell>
        <mxCell id="IwYNM2S-BBjEqah2TzmC-48" value="&lt;span style=&quot;font-size: 48px;&quot;&gt;FI&lt;/span&gt;" style="ellipse;whiteSpace=wrap;html=1;align=center;fillColor=#fff2cc;strokeColor=#d6b656;" parent="1" vertex="1">
          <mxGeometry x="1760" y="-520" width="160" height="100" as="geometry" />
        </mxCell>
        <mxCell id="wDYUuuzKXJS1eDHKZzvI-1" style="edgeStyle=orthogonalEdgeStyle;rounded=0;orthogonalLoop=1;jettySize=auto;html=1;exitX=0.5;exitY=1;exitDx=0;exitDy=0;" parent="1" source="PB8VJp5A9sUiDMv73GTw-14" target="PB8VJp5A9sUiDMv73GTw-14" edge="1">
          <mxGeometry relative="1" as="geometry" />
        </mxCell>
        <mxCell id="i-5mqXk06CoupeoVMKqS-6" style="edgeStyle=orthogonalEdgeStyle;rounded=0;orthogonalLoop=1;jettySize=auto;html=1;entryX=0;entryY=0.5;entryDx=0;entryDy=0;" parent="1" source="i-5mqXk06CoupeoVMKqS-5" target="IwYNM2S-BBjEqah2TzmC-15" edge="1">
          <mxGeometry relative="1" as="geometry" />
        </mxCell>
        <mxCell id="i-5mqXk06CoupeoVMKqS-5" value="구매견적요청" style="rounded=0;whiteSpace=wrap;html=1;fontSize=24;" parent="1" vertex="1">
          <mxGeometry x="280" y="-880" width="190" height="100" as="geometry" />
        </mxCell>
        <mxCell id="60yucdKm0E93LIc5MlVe-3" value="" style="edgeStyle=orthogonalEdgeStyle;rounded=0;orthogonalLoop=1;jettySize=auto;html=1;entryX=0.5;entryY=1;entryDx=0;entryDy=0;" parent="1" source="60yucdKm0E93LIc5MlVe-1" target="PB8VJp5A9sUiDMv73GTw-48" edge="1">
          <mxGeometry relative="1" as="geometry">
            <Array as="points">
              <mxPoint x="625" y="-1360" />
              <mxPoint x="625" y="-1360" />
            </Array>
          </mxGeometry>
        </mxCell>
        <mxCell id="60yucdKm0E93LIc5MlVe-5" value="" style="edgeStyle=orthogonalEdgeStyle;rounded=0;orthogonalLoop=1;jettySize=auto;html=1;" parent="1" source="60yucdKm0E93LIc5MlVe-1" target="IwYNM2S-BBjEqah2TzmC-1" edge="1">
          <mxGeometry relative="1" as="geometry" />
        </mxCell>
        <mxCell id="60yucdKm0E93LIc5MlVe-1" value="생산 계획 &lt;br&gt;수행" style="rounded=0;whiteSpace=wrap;html=1;fontSize=24;" parent="1" vertex="1">
          <mxGeometry x="555" y="-1330" width="150" height="100" as="geometry" />
        </mxCell>
        <mxCell id="VcnRMFTN6XKTCe_h4LS6-7" style="edgeStyle=orthogonalEdgeStyle;rounded=0;orthogonalLoop=1;jettySize=auto;html=1;entryX=0.5;entryY=0;entryDx=0;entryDy=0;" edge="1" parent="1" source="VcnRMFTN6XKTCe_h4LS6-5" target="PB8VJp5A9sUiDMv73GTw-41">
          <mxGeometry relative="1" as="geometry" />
        </mxCell>
        <mxCell id="VcnRMFTN6XKTCe_h4LS6-5" value="수요 예측" style="rounded=0;whiteSpace=wrap;html=1;fontSize=24;" vertex="1" parent="1">
          <mxGeometry x="10" y="-2000" width="150" height="100" as="geometry" />
        </mxCell>
      </root>
    </mxGraphModel>
  </diagram>
</mxfile>
